<svg viewBox="0 0 85 17" xmlns="http://www.w3.org/2000/svg" fill-rule="evenodd" clip-rule="evenodd" stroke-linejoin="round" stroke-miterlimit="1.414"><path d="M5.822 9.598l3.976 7.309h3.882L8.12 6.725 13.416.093H9.367L3.402 7.986V.093H0v16.814h3.402V12.61l2.42-3.012zM18.255 0h5.774c2.012 0 3.402 1.354 3.402 3.316v10.368c0 1.962-1.39 3.316-3.402 3.316h-5.774c-2.012 0-3.402-1.354-3.402-3.316V3.316c0-1.962 1.39-3.316 3.402-3.316zm5.726 13.03V3.97c0-.514-.287-.794-.814-.794h-4.05c-.526 0-.814.28-.814.794v9.06c0 .514.288.794.815.794h4.049c.527 0 .814-.28.814-.794zM47.291.093h-3.785L39.05 9.948 34.594.093H30.81v16.814h3.258V5.697l3.737 8.524h2.492l3.737-8.523v11.209h3.258V.093h-.001zm3.786 0h8.816c2.012 0 3.402 1.355 3.402 3.316v4.25c0 1.962-1.39 3.316-3.402 3.316h-5.367v5.932h-3.45V.093h.001zm3.45 7.706h4.503c.527 0 .815-.28.815-.794V4.063c0-.514-.288-.794-.815-.794h-4.504V7.8l.001-.001zm11.547 9.108h3.45V.093h-3.45v16.814zm15.285-11.63h3.354V3.316C84.713 1.354 83.323 0 81.31 0h-5.08c-2.01 0-3.4 1.354-3.4 3.316v2.849c0 1.868 1.58 2.965 3.45 3.362l4.456.935c.527.116.814.28.814.793v1.775c0 .514-.287.794-.814.794h-3.738c-.527 0-.814-.28-.814-.794v-1.494H72.83v2.148c0 1.962 1.39 3.316 3.402 3.316h5.366C83.61 17 85 15.646 85 13.684v-3.036c0-1.868-1.581-2.965-3.45-3.362l-4.456-.934c-.527-.117-.814-.28-.814-.794V3.97c0-.514.287-.794.814-.794h3.45c.527 0 .815.28.815.794v1.307z" fill="#000" opacity="0.4"/></svg>
