<?xml version="1.0" encoding="UTF-8" standalone="no"?>
<!DOCTYPE svg PUBLIC "-//W3C//DTD SVG 1.1//EN" "http://www.w3.org/Graphics/SVG/1.1/DTD/svg11.dtd">
<svg width="100%" height="100%" viewBox="0 0 128 128" version="1.1" xmlns="http://www.w3.org/2000/svg" xmlns:xlink="http://www.w3.org/1999/xlink" xml:space="preserve" style="fill-rule:evenodd;clip-rule:evenodd;stroke-linejoin:round;stroke-miterlimit:1.41421;">
    <g transform="matrix(1,0,0,1,0.5,0.5)">
        <path d="M121,34.75C121,18.882 108.118,6 92.25,6L34.75,6C18.882,6 6,18.882 6,34.75L6,92.25C6,108.118 18.882,121 34.75,121L92.25,121C108.118,121 121,108.118 121,92.25L121,34.75Z" style="fill:rgb(235,235,235);"/>
    </g>
    <g id="Group" transform="matrix(1,0,0,1,19,24)">
        <g id="Rectangle.-3.-Copy.-4">
            <path id="path.-1" d="M90,39C90,32.377 84.623,27 78,27C71.377,27 66,32.377 66,39C66,45.623 71.377,51 78,51C84.623,51 90,45.623 90,39Z"/>
            <path id="path.-11" d="M90,39C90,32.377 84.623,27 78,27C71.377,27 66,32.377 66,39C66,45.623 71.377,51 78,51C84.623,51 90,45.623 90,39Z" style="fill:rgb(233,117,117);"/>
        </g>
        <g id="Rectangle.-3.-Copy.-41">
            <path id="path.-3" d="M58,32C58,25.377 52.623,20 46,20C39.377,20 34,25.377 34,32L34,68C34,74.623 39.377,80 46,80C52.623,80 58,74.623 58,68L58,32Z"/>
            <path id="path.-31" d="M58,32C58,25.377 52.623,20 46,20C39.377,20 34,25.377 34,32L34,68C34,74.623 39.377,80 46,80C52.623,80 58,74.623 58,68L58,32Z" style="fill:rgb(103,213,169);"/>
        </g>
        <g id="Rectangle.-3.-Copy.-42">
            <path id="path.-5" d="M24,12C24,5.377 18.623,0 12,0C5.377,0 0,5.377 0,12L0,35C0,41.623 5.377,47 12,47C18.623,47 24,41.623 24,35L24,12Z"/>
            <path id="path.-51" d="M24,12C24,5.377 18.623,0 12,0C5.377,0 0,5.377 0,12L0,35C0,41.623 5.377,47 12,47C18.623,47 24,41.623 24,35L24,12Z" style="fill:rgb(137,121,237);"/>
        </g>
    </g>
</svg>
